<?xml version="1.0" encoding="UTF-8"?>
<svg enable-background="new 0 0 379 379" version="1.1" viewBox="0 0 379 379" xml:space="preserve" xmlns="http://www.w3.org/2000/svg">
<g class="currentLayer" style=""><title>Layer 1</title><path fill="#ffffff" fill-opacity="1" stroke="#ffffff" stroke-opacity="0" stroke-width="2" stroke-dasharray="none" stroke-linejoin="round" stroke-linecap="butt" stroke-dashoffset="" fill-rule="nonzero" opacity="1" marker-start="" marker-mid="" marker-end="" d="M64.55555492090002,177.0555507960075 C64.55555492090002,113.91865903537592 115.94505615402727,62.777776709264316 179.3888848369004,62.777776709264316 C242.8327135197735,62.777776709264316 294.22221475290075,113.91865903537592 294.22221475290075,177.0555507960075 C294.22221475290075,240.19244255663912 242.8327135197735,291.33332488275073 179.3888848369004,291.33332488275073 C115.94505615402727,291.33332488275073 64.55555492090002,240.19244255663912 64.55555492090002,177.0555507960075 z" id="svg_17" class=""/><path d="M174.99999983432187,7.777786139968498 C82.71558130653258,7.777786139968498 7.9166717529296875,82.63887012365481 7.9166717529296875,174.99999740511154 c0,92.36017172596382 74.7989095536029,167.22221126514305 167.08332808139218,167.22221126514305 c92.28346376591453,0 167.08332808139218,-74.86203953917925 167.08332808139218,-167.22221126514305 C342.08332791571405,82.63887012365481 267.2834636002364,7.777786139968498 174.99999983432187,7.777786139968498 zM254.94984970220537,188.42555208097016 l-99.6637730577383,68.62035105927116 c-2.772628484276359,1.9005998754649687 -5.999723620934105,2.8723998117886858 -9.235411614464608,2.8723998117886858 c-2.604590394320218,0 -5.190085551145416,-0.6191999594275026 -7.5712616667739425,-1.8642887667331107 c-5.351440307978304,-2.8332220365779954 -8.712202107101163,-8.386910561566632 -8.712202107101163,-14.431754609928317 V106.37964634584038 c0,-6.0448440483616865 3.3607617991228595,-11.599488128843266 8.712202107101163,-14.43271016542126 c5.351440307978304,-2.809333149254404 11.817087723790806,-2.422333174612215 16.806673281238552,1.0081110450555768 l99.6637730577383,68.61939550377821 c4.410045099474001,3.038666467560885 7.052825968784252,8.065843915937556 7.052825968784252,13.42555467585863 C262.0026756709897,180.35970816503263 259.36084956355415,185.3868856134093 254.94984970220537,188.42555208097016 z" fill="#016fb9" id="svg_1" class="" stroke="#ffffff" stroke-opacity="1" stroke-width="20"/><g id="svg_2">
</g><g id="svg_3">
</g><g id="svg_4">
</g><g id="svg_5">
</g><g id="svg_6">
</g><g id="svg_7">
</g><g id="svg_8">
</g><g id="svg_9">
</g><g id="svg_10">
</g><g id="svg_11">
</g><g id="svg_12">
</g><g id="svg_13">
</g><g id="svg_14">
</g><g id="svg_15">
</g><g id="svg_16">
</g></g><defs><filter id="f106" xmlns:inkscape="http://www.inkscape.org/namespaces/inkscape" inkscape:label="Feather" inkscape:menu="ABCs" inkscape:menu-tooltip="Blurred mask on the edge without altering the contents" color-interpolation-filters="sRGB">
            <feGaussianBlur result="result6" stdDeviation="5"/>
            <feComposite in2="result6" operator="atop" in="SourceGraphic" result="result91"/>
            <feComposite operator="in" in2="result91" result="result92"/>
            <feComposite operator="in" in2="result92"/>
        </filter></defs></svg>
