<?xml version="1.0" encoding="utf-8"?>
<svg viewBox="72.6794 255.6483 334.9116 195.6593" xmlns="http://www.w3.org/2000/svg" xmlns:bx="https://boxy-svg.com">
  <defs>
    <style bx:fonts="Bubblegum Sans">@import url(https://fonts.googleapis.com/css2?family=Bubblegum+Sans%3Aital%2Cwght%400%2C400&amp;display=swap);</style>
  </defs>
  <text style="fill: color(srgb-linear 1 0 0); font-family: 'Bubblegum Sans'; font-size: 124px; font-weight: 700; line-height: 52.766px; paint-order: stroke; stroke-miterlimit: 5.83; stroke-width: 13.2531px; white-space: pre;" x="71.255" y="322.617" transform="matrix(0.47956201434135437, 0, 0, 0.5510200262069702, 84.16137695312503, 189.97447204589844)">NB21</text>
  <path style="stroke: rgb(0, 0, 0); fill: color(a98-rgb 0.166 0.695 0.761 / 0.792);" transform="matrix(0.9552250504493713, 0, 0, 0.6193690299987793, 72.67890930175781, 244.899169921875)" d="M342.91,33.422c-7.816-10.361-20.508-16.067-35.737-16.067h-9.395h-26.514h-11.596h-26.514h-14.494h-15.087l-4.144,14.506   l-3.997,13.994H25.645c-5.85,0-10.592,4.742-10.592,10.592v168.762L0.132,320.602c-0.494,3.164,0.418,6.387,2.502,8.82   c2.082,2.434,5.123,3.834,8.326,3.834h299.334c0.008,0,0.014,0,0.02,0c6.055,0,10.961-4.906,10.961-10.961   c0-0.816-0.09-1.611-0.26-2.377l-14.813-94.711V112.314c7.353-1.929,14.279-5.201,20.493-9.748   c10.549-7.718,18.312-18.804,21.858-31.217C352.62,57.107,350.617,43.638,342.91,33.422z M218.661,37.354h14.494l-6.699,23.451   h23.615l6.699-23.451h14.494l-16.283,57h-14.494l6.326-22.148H223.2l-6.326,22.148h-14.496L218.661,37.354z M188.511,299.888   h-55.749c-3.676,0-6.667-2.991-6.667-6.667s2.991-6.666,6.667-6.666h55.749c3.677,0,6.667,2.99,6.667,6.666   S192.188,299.888,188.511,299.888z M285.016,211.436H36.237V67.038h153.145l-6.234,21.823l-7.283,25.494h109.152V211.436z    M329.323,65.854c-4.816,16.856-20.682,28.5-39.004,28.5h-23.94l10.758-37.661h14.494l-7.455,26.097h10.342   c8.875,0,17.182-6.839,20.043-16.854c2.883-10.097-1.816-17.019-11.018-17.019h-24.186l3.303-11.563h24.512   C325.087,37.354,334.161,48.917,329.323,65.854z" bx:shape="cog 123 258.5 11.1 24.05 37 0.38 8 1@f7d3f9b2"/>
</svg>
